<svg width="121" height="48" viewBox="0 0 121 48" fill="none" xmlns="http://www.w3.org/2000/svg">
<path d="M55.0518 33.958C55.5198 33.958 55.8798 34.174 56.1318 34.606C56.4198 35.038 56.5638 35.632 56.5638 36.388C56.5638 37.792 56.2218 38.908 55.5378 39.736C53.8098 41.824 52.0638 43.444 50.2998 44.596C48.5358 45.712 46.4478 46.27 44.0358 46.27C41.3718 46.27 39.1938 45.496 37.5018 43.948C35.8098 42.364 34.2258 39.916 32.7498 36.604C31.6698 34.228 30.7698 32.464 30.0498 31.312C29.3658 30.124 28.6818 29.296 27.9978 28.828C27.3138 28.324 26.4498 28.018 25.4058 27.91L24.8118 31.906C24.0558 37.054 22.5798 40.762 20.3838 43.03C18.2238 45.298 15.2358 46.432 11.4198 46.432C8.93581 46.432 6.72181 45.838 4.77781 44.65C2.86981 43.426 1.53781 41.878 0.781809 40.006C0.529809 39.358 0.403809 38.656 0.403809 37.9C0.403809 36.82 0.655809 35.884 1.15981 35.092C1.66381 34.3 2.31181 33.904 3.10381 33.904C3.57181 33.904 3.96781 34.03 4.29181 34.282C4.61581 34.498 4.92181 34.894 5.20981 35.47C6.32581 37.558 7.29781 39.016 8.12581 39.844C8.98981 40.672 10.0518 41.086 11.3118 41.086C12.7518 41.086 13.9758 40.438 14.9838 39.142C16.0278 37.81 16.7658 35.776 17.1978 33.04L17.9538 27.91H17.0898C16.2618 27.91 15.6138 27.676 15.1458 27.208C14.6778 26.74 14.4438 26.092 14.4438 25.264C14.4438 24.328 14.6778 23.59 15.1458 23.05C15.6498 22.474 16.2618 22.186 16.9818 22.186H18.7638C19.0158 20.422 19.1958 19.198 19.3038 18.514L20.9778 6.36397C20.0418 6.25596 19.1598 6.20196 18.3318 6.20196C15.2718 6.20196 12.9498 6.74196 11.3658 7.82197C9.78181 8.86596 8.98981 10.378 8.98981 12.358C8.98981 13.258 9.07981 13.996 9.25981 14.572C9.47581 15.112 9.74581 15.724 10.0698 16.408C10.2138 16.696 10.2858 17.02 10.2858 17.38C10.2858 18.172 9.90781 18.874 9.15181 19.486C8.43181 20.062 7.62181 20.35 6.72181 20.35C5.56981 20.35 4.72381 19.846 4.18381 18.838C3.10381 16.93 2.56381 14.878 2.56381 12.682C2.56381 10.414 3.17581 8.34397 4.39981 6.47196C5.65981 4.59996 7.54981 3.10596 10.0698 1.98996C12.5898 0.837963 15.7038 0.261963 19.4118 0.261963C21.0318 0.261963 22.5078 0.351963 23.8398 0.531963C25.2078 0.711965 26.7018 1.05397 28.3218 1.55797C30.0858 2.09797 30.9678 3.10597 30.9678 4.58197C30.9678 6.56197 30.1218 7.55197 28.4298 7.55197L26.3238 22.078C30.5358 21.646 33.9558 19.846 36.5838 16.678C39.2478 13.474 41.4618 9.13596 43.2258 3.66396C43.5498 2.65596 44.0898 1.88196 44.8458 1.34197C45.6378 0.801963 46.6278 0.531963 47.8158 0.531963C48.8238 0.531963 49.5978 0.765963 50.1378 1.23396C50.7138 1.66596 51.0018 2.29596 51.0018 3.12396C51.0018 3.37596 50.9298 3.78996 50.7858 4.36596C48.9858 10.306 46.4118 15.022 43.0638 18.514C39.7158 22.006 36.0618 24.328 32.1018 25.48C33.4698 25.804 34.5858 26.29 35.4498 26.938C36.3498 27.586 37.1058 28.396 37.7178 29.368C38.3298 30.304 39.0318 31.618 39.8238 33.31C40.9398 35.686 41.9838 37.378 42.9558 38.386C43.9278 39.358 45.0618 39.844 46.3578 39.844C47.5098 39.844 48.6078 39.466 49.6518 38.71C50.6958 37.918 52.0098 36.586 53.5938 34.714C54.0258 34.21 54.5118 33.958 55.0518 33.958Z" fill="#FFAC33"/>
<path d="M57.7514 46.27C55.5194 46.27 53.7374 45.46 52.4054 43.84C51.0734 42.22 50.4074 40.096 50.4074 37.468C50.4074 34.588 51.0734 31.87 52.4054 29.314C53.7374 26.722 55.5014 24.652 57.6974 23.104C59.9294 21.52 62.2874 20.728 64.7714 20.728C65.5634 20.728 66.0854 20.89 66.3374 21.214C66.6254 21.502 66.8594 22.042 67.0394 22.834C67.7954 22.69 68.5874 22.618 69.4154 22.618C71.1794 22.618 72.0614 23.248 72.0614 24.508C72.0614 25.264 71.7914 27.064 71.2514 29.908C70.4234 34.048 70.0094 36.928 70.0094 38.548C70.0094 39.088 70.1354 39.52 70.3874 39.844C70.6754 40.168 71.0354 40.33 71.4674 40.33C72.1514 40.33 72.9794 39.898 73.9514 39.034C74.9234 38.134 76.2374 36.694 77.8934 34.714C78.3254 34.21 78.8114 33.958 79.3514 33.958C79.8194 33.958 80.1794 34.174 80.4314 34.606C80.7194 35.038 80.8634 35.632 80.8634 36.388C80.8634 37.828 80.5214 38.944 79.8374 39.736C78.3614 41.572 76.7954 43.12 75.1394 44.38C73.4834 45.64 71.8814 46.27 70.3334 46.27C69.1454 46.27 68.0474 45.874 67.0394 45.082C66.0674 44.254 65.3294 43.138 64.8254 41.734C62.9534 44.758 60.5954 46.27 57.7514 46.27ZM59.6954 40.816C60.4874 40.816 61.2434 40.348 61.9634 39.412C62.6834 38.476 63.2054 37.234 63.5294 35.686L65.5274 25.75C64.0154 25.786 62.6114 26.362 61.3154 27.478C60.0554 28.558 59.0474 29.998 58.2914 31.798C57.5354 33.598 57.1574 35.506 57.1574 37.522C57.1574 38.638 57.3734 39.466 57.8054 40.006C58.2734 40.546 58.9034 40.816 59.6954 40.816Z" fill="#FFAC33"/>
<path d="M83.1166 46.27C80.8846 46.27 79.1026 45.46 77.7706 43.84C76.4386 42.22 75.7726 40.096 75.7726 37.468C75.7726 34.588 76.4386 31.87 77.7706 29.314C79.1026 26.722 80.8666 24.652 83.0626 23.104C85.2946 21.52 87.6526 20.728 90.1366 20.728C90.9286 20.728 91.4506 20.89 91.7026 21.214C91.9906 21.502 92.2246 22.042 92.4046 22.834C93.1606 22.69 93.9526 22.618 94.7806 22.618C96.5446 22.618 97.4266 23.248 97.4266 24.508C97.4266 25.264 97.1566 27.064 96.6166 29.908C95.7886 34.048 95.3746 36.928 95.3746 38.548C95.3746 39.088 95.5006 39.52 95.7526 39.844C96.0406 40.168 96.4006 40.33 96.8326 40.33C97.5166 40.33 98.3446 39.898 99.3166 39.034C100.289 38.134 101.603 36.694 103.259 34.714C103.691 34.21 104.177 33.958 104.717 33.958C105.185 33.958 105.545 34.174 105.797 34.606C106.085 35.038 106.229 35.632 106.229 36.388C106.229 37.828 105.887 38.944 105.203 39.736C103.727 41.572 102.161 43.12 100.505 44.38C98.8486 45.64 97.2466 46.27 95.6986 46.27C94.5106 46.27 93.4126 45.874 92.4046 45.082C91.4326 44.254 90.6946 43.138 90.1906 41.734C88.3186 44.758 85.9606 46.27 83.1166 46.27ZM85.0606 40.816C85.8526 40.816 86.6086 40.348 87.3286 39.412C88.0486 38.476 88.5706 37.234 88.8946 35.686L90.8926 25.75C89.3806 25.786 87.9766 26.362 86.6806 27.478C85.4206 28.558 84.4126 29.998 83.6566 31.798C82.9006 33.598 82.5226 35.506 82.5226 37.522C82.5226 38.638 82.7386 39.466 83.1706 40.006C83.6386 40.546 84.2686 40.816 85.0606 40.816Z" fill="#FFAC33"/>
<path d="M111.884 47.458C110.012 47.458 108.572 47.026 107.564 46.162C106.592 45.298 106.106 44.326 106.106 43.246C106.106 42.31 106.448 41.5 107.132 40.816C107.816 40.132 108.824 39.79 110.156 39.79C110.624 39.79 111.164 39.844 111.776 39.952C112.424 40.024 112.91 40.078 113.234 40.114C113.198 39.178 112.982 38.296 112.586 37.468C112.226 36.64 111.758 35.848 111.182 35.092C110.606 34.3 110.066 33.616 109.562 33.04C108.446 35.164 107.33 36.928 106.214 38.332C105.134 39.736 103.946 41.068 102.65 42.328C102.002 42.976 101.318 43.3 100.598 43.3C100.022 43.3 99.5539 43.102 99.1939 42.706C98.8339 42.274 98.6539 41.752 98.6539 41.14C98.6539 40.42 98.9059 39.754 99.4099 39.142L100.112 38.278C102.092 35.83 103.586 33.814 104.594 32.23C105.242 31.186 105.89 29.944 106.538 28.504C107.222 27.064 108.104 25.102 109.184 22.618C109.868 21.034 111.29 20.242 113.45 20.242C114.458 20.242 115.16 20.332 115.556 20.512C115.952 20.692 116.15 20.98 116.15 21.376C116.15 21.592 116.078 21.934 115.934 22.402C115.79 22.87 115.592 23.338 115.34 23.806C114.692 25.102 114.368 26.2 114.368 27.1C114.368 27.64 114.548 28.234 114.908 28.882C115.304 29.53 115.898 30.34 116.69 31.312C117.842 32.824 118.706 34.12 119.282 35.2C119.894 36.244 120.2 37.396 120.2 38.656C120.2 40.168 119.84 41.608 119.12 42.976C118.436 44.308 117.464 45.388 116.204 46.216C114.944 47.044 113.504 47.458 111.884 47.458Z" fill="#FFAC33"/>
</svg>
