<svg width="64" height="64" viewBox="0 0 64 64" fill="none" xmlns="http://www.w3.org/2000/svg">
<path d="M21.3358 2.00073H40.274L20.6143 60.2503C20.4122 60.8489 20.0276 61.369 19.5144 61.7374C19.0012 62.1059 18.3855 62.3041 17.7537 62.3043H3.01513C2.53648 62.3043 2.06469 62.1904 1.63881 61.972C1.21292 61.7535 0.845167 61.4368 0.565977 61.048C0.286787 60.6592 0.104182 60.2095 0.0332692 59.7361C-0.0376433 59.2628 0.00517508 58.7793 0.158181 58.3258L18.4745 4.0547C18.6765 3.4559 19.0612 2.93554 19.5745 2.56693C20.0878 2.19832 20.7039 2.00076 21.3358 2.00073Z" fill="url(#paint0_linear_390_1552)"/>
<path d="M48.8557 41.0707H18.8243C18.5451 41.0704 18.2723 41.1542 18.0414 41.3111C17.8105 41.4681 17.6322 41.6909 17.5298 41.9507C17.4274 42.2104 17.4055 42.495 17.4671 42.7673C17.5287 43.0396 17.6709 43.2871 17.8752 43.4774L37.1726 61.489C37.7345 62.0131 38.4743 62.3045 39.2426 62.3043H56.2476L48.8557 41.0707Z" fill="#0078D4"/>
<path d="M21.3359 2.00075C20.697 1.9983 20.0741 2.20019 19.5582 2.57691C19.0422 2.95364 18.6602 3.48548 18.468 4.09473L0.180784 58.2764C0.0174833 58.7315 -0.0337845 59.2194 0.0313174 59.6985C0.0964192 60.1777 0.275975 60.6342 0.554796 61.0293C0.833617 61.4244 1.2035 61.7466 1.63316 61.9685C2.06281 62.1904 2.5396 62.3056 3.02318 62.3043H18.1422C18.7053 62.2037 19.2316 61.9554 19.6673 61.5849C20.1031 61.2143 20.4326 60.7347 20.6224 60.1951L24.2692 49.4473L37.2956 61.5973C37.8415 62.0489 38.5263 62.2985 39.2347 62.3043H56.1764L48.746 41.0707L27.0854 41.0758L40.3424 2.00075H21.3359Z" fill="url(#paint1_linear_390_1552)"/>
<path d="M45.5246 4.0518C45.3229 3.45396 44.9387 2.93447 44.4262 2.5665C43.9136 2.19854 43.2986 2.00066 42.6676 2.00073H21.5613C22.1922 2.00077 22.8072 2.19869 23.3197 2.56664C23.8322 2.93459 24.2164 3.45402 24.4182 4.0518L42.7353 58.3251C42.8884 58.7787 42.9313 59.2623 42.8605 59.7357C42.7896 60.2092 42.607 60.6591 42.3279 61.048C42.0487 61.4369 41.6809 61.7538 41.2549 61.9724C40.829 62.191 40.3571 62.305 39.8783 62.305H60.9854C61.4641 62.3049 61.9359 62.1908 62.3618 61.9721C62.7876 61.7535 63.1553 61.4366 63.4344 61.0477C63.7135 60.6588 63.896 60.209 63.9668 59.7356C64.0377 59.2621 63.9947 58.7786 63.8416 58.3251L45.5246 4.0518Z" fill="url(#paint2_linear_390_1552)"/>
<defs>
<linearGradient id="paint0_linear_390_1552" x1="28.2382" y1="6.46944" x2="8.57047" y2="64.5728" gradientUnits="userSpaceOnUse">
<stop stop-color="#114A8B"/>
<stop offset="1" stop-color="#0669BC"/>
</linearGradient>
<linearGradient id="paint1_linear_390_1552" x1="34.382" y1="33.5472" x2="29.8325" y2="35.0855" gradientUnits="userSpaceOnUse">
<stop stop-opacity="0.3"/>
<stop offset="0.071" stop-opacity="0.2"/>
<stop offset="0.321" stop-opacity="0.1"/>
<stop offset="0.623" stop-opacity="0.05"/>
<stop offset="1" stop-opacity="0"/>
</linearGradient>
<linearGradient id="paint2_linear_390_1552" x1="31.8799" y1="4.77476" x2="53.4692" y2="62.2926" gradientUnits="userSpaceOnUse">
<stop stop-color="#3CCBF4"/>
<stop offset="1" stop-color="#2892DF"/>
</linearGradient>
</defs>
</svg>
