<svg width="64" height="64" viewBox="0 0 64 64" fill="none" xmlns="http://www.w3.org/2000/svg">
<g clip-path="url(#clip0_389_1552)">
<path fill-rule="evenodd" clip-rule="evenodd" d="M59.6645 26.4366C61.1074 22.0757 60.6048 17.3094 58.2865 13.3375C54.801 7.25803 47.7812 4.12914 40.9236 5.60442C37.0652 1.30828 31.1965 -0.604722 25.5548 0.594955C19.9131 1.79463 15.3251 5.91244 13.5256 11.392C9.01871 12.3161 5.14407 15.137 2.8582 19.1251C-0.675978 25.1883 0.134613 32.8403 4.83605 38.0443C3.37698 42.4053 3.87955 47.1716 6.19784 51.1435C9.6996 57.2229 16.7193 60.3518 23.5769 58.8765C26.6248 62.3135 31.002 64.2589 35.6061 64.2427C42.6259 64.2427 48.8512 59.7196 50.9912 53.0241C55.4981 52.1 59.3727 49.2791 61.6586 45.291C65.1441 39.244 64.3335 31.6244 59.6645 26.4366ZM35.6061 60.06C32.8015 60.06 30.0941 59.0873 27.9379 57.2878L28.3108 57.077L41.0533 49.7168C41.7018 49.344 42.0909 48.6469 42.1071 47.9011V29.9222L47.4894 33.0349C47.538 33.0673 47.5867 33.1159 47.5867 33.1808V48.0632C47.5705 54.6939 42.2206 60.0438 35.6061 60.06ZM9.84551 49.0522C8.43508 46.6204 7.93251 43.7833 8.41887 41.0111L8.79174 41.2381L21.5505 48.5982C22.1989 48.9711 22.9933 48.9711 23.6256 48.5982L39.2052 39.6169V45.8422C39.2052 45.9071 39.1727 45.9719 39.1241 46.0043L26.2195 53.4456C20.4805 56.7528 13.1527 54.7912 9.84551 49.0522ZM6.47345 21.2975C7.88388 18.8495 10.1211 16.9851 12.7799 16.0286V31.1705C12.7636 31.9162 13.1689 32.6134 13.8174 32.97L29.3159 41.919L23.9336 45.0316C23.8688 45.064 23.8039 45.064 23.7391 45.0316L10.8506 37.6066C5.12786 34.2832 3.16623 26.9716 6.45723 21.2326V21.2975H6.47345ZM50.748 31.5758L35.1846 22.5458L40.567 19.4493C40.6318 19.4169 40.6967 19.4169 40.7615 19.4493L53.6499 26.8906C57.6704 29.2089 59.9887 33.6509 59.5997 38.2713C59.2106 42.8917 56.1952 46.8798 51.8342 48.501V33.3591C51.8018 32.6133 51.3965 31.9487 50.748 31.5758ZM56.0979 23.5185L55.725 23.2915L42.9987 15.8665C42.3503 15.4936 41.5559 15.4936 40.9074 15.8665L25.344 24.8479V18.6225C25.344 18.5577 25.3602 18.4928 25.4251 18.4604L38.3135 11.0354C42.3503 8.71709 47.3597 8.92785 51.1695 11.5866C54.9793 14.2453 56.9247 18.8819 56.1303 23.4537V23.5185H56.0979ZM22.3935 34.5426L17.0111 31.4461C16.9625 31.4137 16.9139 31.365 16.9139 31.3002V16.4501C16.9139 11.7973 19.605 7.56605 23.8201 5.60442C28.0352 3.62657 32.996 4.27505 36.5788 7.24182L36.206 7.45256L23.4635 14.8127C22.815 15.1856 22.4259 15.8827 22.4097 16.6285L22.3935 34.5426ZM25.3116 28.2362L32.2503 24.2318L39.2052 28.2362V36.2286L32.2827 40.2329L25.3278 36.2286L25.3116 28.2362Z" fill="#348B6B"/>
</g>
<defs>
<clipPath id="clip0_389_1552">
<rect width="64" height="64" fill="white"/>
</clipPath>
</defs>
</svg>
