<svg width="64" height="64" viewBox="0 0 64 64" fill="none" xmlns="http://www.w3.org/2000/svg">
<g clip-path="url(#clip0_502_1653)">
<path d="M18.5389 0.0179817C17.9417 0.114455 17.2251 0.426844 16.7197 0.812741C15.19 1.97502 14.0047 4.44199 13.504 7.51535C13.3156 8.67762 13.187 10.2901 13.187 11.5214C13.187 12.973 13.357 14.829 13.6004 16.1107C13.6556 16.3955 13.6831 16.6482 13.6602 16.6666C13.6418 16.685 13.4167 16.8687 13.164 17.0708C12.3003 17.7599 11.3126 18.8212 10.6327 19.7905C9.32803 21.6419 8.48274 23.7459 8.129 26.0245C7.99118 26.925 7.95443 28.7442 8.06468 29.6446C8.30816 31.7211 8.93295 33.476 10.0033 35.0839L10.3525 35.603L10.2514 35.773C9.53476 36.9766 8.92376 38.7178 8.63893 40.3899C8.41383 41.713 8.38626 42.0667 8.38626 43.84C8.38626 45.6271 8.40923 45.9809 8.62056 47.2166C8.87323 48.6959 9.38775 50.2624 9.962 51.3053C10.1504 51.6452 10.6098 52.3527 10.6649 52.3895C10.6833 52.3986 10.6281 52.5686 10.5408 52.7661C9.87931 54.2132 9.31425 56.1381 9.07995 57.7598C8.91457 58.8715 8.8916 59.2299 8.8916 60.4014C8.8916 61.8944 8.97429 62.6203 9.28668 63.8101L9.33262 63.9846H11.2988H13.2697L13.141 63.7412C12.3463 62.2711 12.2728 59.5423 12.9573 56.8181C13.2697 55.5593 13.6234 54.6359 14.2849 53.3633L14.68 52.5916V52.1184C14.68 51.6774 14.6708 51.6269 14.5284 51.3374C14.4182 51.1169 14.2712 50.9286 14.0093 50.6713C13.5637 50.2395 13.2421 49.7847 12.9848 49.2242C11.8547 46.771 11.6342 43.128 12.429 40.0224C12.7597 38.7269 13.3064 37.5738 13.8807 36.9445C14.2712 36.5126 14.4733 36.0303 14.4733 35.5295C14.4733 35.0104 14.2895 34.5832 13.8761 34.1376C12.6908 32.8696 11.9604 31.326 11.6985 29.5298C11.3264 26.9709 12.0017 24.1823 13.5361 21.9727C15.0384 19.8043 17.147 18.4123 19.5037 18.0402C20.032 17.9529 21.0197 17.9667 21.571 18.0678C22.1729 18.1735 22.5495 18.1412 22.9355 17.9575C23.4132 17.7324 23.6521 17.4521 23.9323 16.809C24.1804 16.2348 24.3734 15.9224 24.8925 15.2746C25.5173 14.4982 26.119 13.9699 27.0838 13.3313C28.1864 12.6101 29.4405 12.0864 30.6901 11.8337C31.1448 11.7418 31.3562 11.728 32.2061 11.728C33.056 11.728 33.2673 11.7418 33.7221 11.8337C35.5551 12.2059 37.3743 13.1522 38.826 14.4936C39.1384 14.783 39.8872 15.711 40.1261 16.097C40.218 16.2485 40.3788 16.5702 40.4798 16.809C40.7601 17.4521 40.999 17.7324 41.4767 17.9575C41.8489 18.1367 42.2393 18.1735 42.8182 18.0769C43.7324 17.9208 44.4353 17.9345 45.3311 18.1183C48.3815 18.7339 51.0369 21.2468 52.2129 24.6142C53.2374 27.5681 52.9479 30.6599 51.4227 33.0212C51.1654 33.4209 50.9082 33.7425 50.5361 34.1376C49.7321 34.9966 49.7321 36.0624 50.5315 36.9445C51.8454 38.3824 52.6677 41.9198 52.4196 45.0391C52.2543 47.0972 51.7259 48.9394 51.0001 49.9822C50.8715 50.166 50.605 50.4783 50.4028 50.6713C50.141 50.9286 49.994 51.1169 49.8837 51.3374C49.7413 51.6269 49.7321 51.6774 49.7321 52.1184V52.5916L50.1272 53.3633C50.7888 54.6359 51.1425 55.5593 51.4549 56.8181C52.1302 59.5055 52.0705 62.1792 51.2987 63.6999C51.2344 63.8285 51.1792 63.9479 51.1792 63.9617C51.1792 63.9755 52.0567 63.9846 53.1317 63.9846H55.0796L55.1301 63.7871C55.1577 63.6815 55.2036 63.5207 55.2265 63.4288C55.2771 63.2267 55.3781 62.6295 55.4609 62.0552C55.539 61.4763 55.539 59.3447 55.4609 58.7016C55.1669 56.3678 54.6753 54.5165 53.8714 52.7661C53.7841 52.5686 53.7289 52.3986 53.7473 52.3895C53.7703 52.3757 53.8989 52.1919 54.0367 51.9852C55.0382 50.4692 55.6538 48.5627 55.9662 46.0451C56.0489 45.3514 56.0489 42.3699 55.9662 41.7038C55.7456 39.9857 55.4792 38.8188 55.0382 37.6381C54.8544 37.1466 54.3675 36.1084 54.1608 35.773L54.0597 35.603L54.4088 35.0839C55.4792 33.476 56.104 31.7211 56.3475 29.6446C56.4577 28.7442 56.421 26.925 56.2832 26.0245C55.9248 23.7413 55.0841 21.6465 53.7795 19.7905C53.0995 18.8212 52.1118 17.7599 51.2482 17.0708C50.9955 16.8687 50.7704 16.685 50.752 16.6666C50.7291 16.6482 50.7566 16.3955 50.8117 16.1107C51.3676 13.2119 51.3492 9.59648 50.7658 6.77114C50.2605 4.30877 49.3417 2.35172 48.1564 1.22161C47.21 0.321184 46.2453 -0.0647114 45.0876 0.00879244C42.4323 0.164988 40.2915 3.21999 39.4462 8.03447C39.3084 8.81087 39.189 9.72051 39.189 9.96856C39.189 10.065 39.1705 10.1431 39.1476 10.1431C39.1246 10.1431 38.9455 10.0512 38.7525 9.93641C36.7036 8.72356 34.425 8.07584 32.2061 8.07584C29.9872 8.07584 27.7086 8.72356 25.6597 9.93641C25.4667 10.0512 25.2876 10.1431 25.2646 10.1431C25.2416 10.1431 25.2232 10.065 25.2232 9.96856C25.2232 9.71129 25.0992 8.77415 24.966 8.03447C24.1987 3.71154 22.4393 0.849492 20.1009 0.128235C19.7794 0.0317612 18.8652 -0.0325522 18.5389 0.0179817ZM19.32 3.75749C19.9815 4.2812 20.7165 5.77884 21.1392 7.45565C21.2173 7.75884 21.2999 8.10799 21.3229 8.23659C21.3413 8.36069 21.3918 8.6409 21.4332 8.85681C21.6124 9.83075 21.695 10.8828 21.7042 12.1645L21.7088 13.4279L21.3918 13.8964L21.0749 14.3696H20.3352C19.4716 14.3696 18.6125 14.4799 17.7901 14.7004C17.4961 14.7739 17.2113 14.8474 17.1562 14.8612C17.0689 14.8796 17.0551 14.852 17.0046 14.4752C16.7335 12.4309 16.7473 10.1661 17.046 8.28253C17.3767 6.18311 18.1485 4.2812 18.9019 3.72074C19.0811 3.58751 19.1132 3.5921 19.32 3.75749ZM45.5149 3.72533C45.9697 4.06069 46.4704 4.95192 46.8425 6.09123C47.5913 8.36984 47.8027 11.4983 47.4076 14.4752C47.3571 14.852 47.3433 14.8796 47.256 14.8612C47.2009 14.8474 46.916 14.7739 46.622 14.7004C45.7997 14.4799 44.9406 14.3696 44.077 14.3696H43.3373L43.0204 13.8964L42.7034 13.4279L42.7079 12.1645C42.7172 10.382 42.8825 8.99005 43.2776 7.44187C43.6957 5.77884 44.4353 4.2812 45.0922 3.75749C45.299 3.5921 45.3311 3.58751 45.5149 3.72533Z" fill="white"/>
<path d="M31.494 26.8468C30.4971 26.9433 30.2261 26.98 29.7483 27.0766C28.9719 27.2373 27.9336 27.5957 27.2124 27.9494C24.7041 29.176 22.9768 31.2203 22.4484 33.5862C22.3428 34.0548 22.329 34.211 22.329 35.0012C22.329 35.7821 22.3428 35.9521 22.4439 36.3977C23.1467 39.4895 25.995 41.7727 29.6794 42.1908C30.4787 42.2781 33.9334 42.2781 34.7328 42.1908C37.6913 41.8554 40.2364 40.2521 41.3803 38.001C41.6834 37.3992 41.8305 37.0087 41.9683 36.3977C42.0694 35.9521 42.0832 35.7821 42.0832 35.0012C42.0832 34.211 42.0694 34.0548 41.9637 33.5862C41.1965 30.1499 37.8613 27.4441 33.7726 26.9295C33.2397 26.8652 31.8432 26.8101 31.494 26.8468ZM33.2121 29.3459C34.5766 29.493 35.9502 29.98 37.0527 30.715C37.6454 31.1101 38.4815 31.937 38.8398 32.4791C39.2808 33.1498 39.5334 33.8343 39.6483 34.6658C39.6988 35.0471 39.6713 35.3365 39.5334 35.9521C39.3175 36.8709 38.6468 37.831 37.7418 38.5018C37.3191 38.8096 36.4417 39.2552 35.9042 39.4298C34.8844 39.7559 34.2182 39.8156 31.8385 39.7973C30.2858 39.7835 30.0101 39.7697 29.5645 39.687C28.0439 39.4022 26.8403 38.7958 25.9675 37.8724C25.2599 37.1282 24.9384 36.4483 24.7638 35.3503C24.6857 34.8404 24.8327 33.9951 25.1313 33.283C25.4943 32.4147 26.4314 31.3352 27.3594 30.715C28.4344 29.9983 29.8494 29.4884 31.1494 29.3506C31.6502 29.2954 32.7114 29.2954 33.2121 29.3459Z" fill="white"/>
<path d="M30.4512 32.6997C30.1021 32.888 29.8586 33.3657 29.9321 33.7195C30.0147 34.1008 30.3501 34.4867 30.8738 34.8037C31.1541 34.9737 31.1724 34.9966 31.1862 35.1666C31.1954 35.2677 31.1586 35.5571 31.1081 35.8144C31.053 36.067 31.0116 36.3335 31.0116 36.407C31.0163 36.6046 31.2 36.9261 31.3929 37.0823C31.563 37.2201 31.5951 37.2247 32.0729 37.2385C32.5093 37.2523 32.6012 37.2431 32.7757 37.1604C33.226 36.9399 33.3408 36.5356 33.1754 35.7592C33.0376 35.1115 33.0652 35.0104 33.4097 34.8129C33.7726 34.6015 34.1586 34.2294 34.2734 33.9767C34.4939 33.4944 34.2917 32.9477 33.8048 32.695C33.6854 32.6353 33.5383 32.6078 33.3224 32.6078C32.9871 32.6078 32.7712 32.6859 32.3761 32.9385L32.1509 33.081L32.0086 32.9937C31.4251 32.6491 31.3195 32.6078 30.9657 32.6124C30.713 32.6124 30.5752 32.6353 30.4512 32.6997Z" fill="white"/>
<path d="M19.297 27.366C18.4839 27.6233 17.8775 28.2205 17.5651 29.0704C17.4135 29.4747 17.34 30.1133 17.4043 30.4578C17.5559 31.2801 18.2312 32.0289 18.9985 32.2357C19.9632 32.4883 20.6844 32.3229 21.323 31.689C21.6951 31.3261 21.8973 31.0091 22.0994 30.4945C22.2463 30.1317 22.2556 30.0674 22.2556 29.5528L22.2601 29.0015L22.0672 28.6064C21.7594 27.9817 21.2035 27.5176 20.5604 27.3477C20.1974 27.2558 19.614 27.2604 19.297 27.366Z" fill="white"/>
<path d="M43.8335 27.3523C43.2041 27.5223 42.6436 27.9908 42.345 28.6064L42.1521 29.0015L42.1567 29.5528C42.1567 30.0673 42.1659 30.1316 42.3128 30.4945C42.515 31.0091 42.7172 31.3261 43.0892 31.689C43.7278 32.3229 44.4491 32.4883 45.4139 32.2357C45.9697 32.0887 46.5255 31.6201 46.792 31.0734C47.0217 30.6094 47.0768 30.274 47.0034 29.7457C46.8334 28.5375 46.1259 27.6601 45.0738 27.3523C44.7661 27.2604 44.1688 27.2604 43.8335 27.3523Z" fill="white"/>
</g>
<defs>
<clipPath id="clip0_502_1653">
<rect width="48.4122" height="64" fill="white" transform="translate(8)"/>
</clipPath>
</defs>
</svg>
