<svg width="64" height="64" viewBox="0 0 64 64" fill="none" xmlns="http://www.w3.org/2000/svg">
<path fill-rule="evenodd" clip-rule="evenodd" d="M28.0115 25.3505C28.0115 25.3505 28.0115 25.3505 28.0115 25.3505L27.906 25.4254C20.2446 30.8625 20.0296 31.0151 16.0313 33.2808C13.5246 34.7013 10.2216 35.7831 7.56685 36.4903C5.03784 37.164 2.12823 37.7543 0.385696 37.7543V26.5062C0.364815 26.5062 0.37407 26.5052 0.41572 26.5007C0.535918 26.4877 0.925924 26.4454 1.64006 26.3136C2.48546 26.1576 3.54163 25.9222 4.67136 25.6212C7.04701 24.9884 9.24309 24.1989 10.4858 23.4947C10.5808 23.4409 10.6731 23.3886 10.7629 23.3378C13.963 21.5251 13.9803 21.5153 21.5017 16.1776C30.9493 9.47293 39.1135 9.89565 47.1226 10.3103C49.0444 10.4099 50.9573 10.5089 52.8769 10.5089V21.757C49.8566 21.757 47.3184 21.6452 45.0995 21.5474C37.8948 21.2299 34.0562 21.0608 28.0115 25.3505Z" fill="#FAFAFA"/>
<path d="M63.875 16.2023L44.6595 27.2965V5.10823L63.875 16.2023Z" fill="#FAFAFA"/>
<path fill-rule="evenodd" clip-rule="evenodd" d="M44.597 5L64 16.2023L44.597 27.4047V5ZM44.722 5.21647V27.1882L63.75 16.2023L44.722 5.21647Z" fill="#FAFAFA"/>
<path fill-rule="evenodd" clip-rule="evenodd" d="M0.0407829 37.7667C-0.000867076 37.7622 -0.0101217 37.7612 0.0107588 37.7612V26.5131C1.75329 26.5131 4.6629 27.1034 7.19191 27.7771C9.84667 28.4843 13.1497 29.5661 15.6563 30.9866C19.6547 33.2523 19.8696 33.4049 27.5311 38.8421L27.6365 38.9169C27.6365 38.9169 27.6365 38.9169 27.6365 38.9169C33.6813 43.2066 37.5198 43.0375 44.7246 42.72C46.9435 42.6222 49.4817 42.5104 52.5019 42.5104V53.7585C50.5824 53.7585 48.6695 53.8575 46.7477 53.9571C38.7386 54.3718 30.5744 54.7945 21.1268 48.0898C13.6054 42.7521 13.5881 42.7423 10.3879 40.9296C10.2982 40.8788 10.2059 40.8265 10.1109 40.7727C8.86815 40.0685 6.67207 39.279 4.29643 38.6462C3.16669 38.3452 2.11052 38.1098 1.26513 37.9538C0.550988 37.822 0.160982 37.7797 0.0407829 37.7667Z" fill="#FAFAFA"/>
<path d="M63.5001 48.0651L44.2846 36.9711V59.1592L63.5001 48.0651Z" fill="#FAFAFA"/>
<path fill-rule="evenodd" clip-rule="evenodd" d="M44.2221 36.8628L63.6251 48.0651L44.2221 59.2675V36.8628ZM44.3471 37.0793V59.051L63.3751 48.0651L44.3471 37.0793Z" fill="#FAFAFA"/>
</svg>
